<mxfile host="65bd71144e">
    <diagram id="cQfWgOqUeoTpaOdeF8sq" name="Page-1">
        <mxGraphModel dx="1205" dy="-248" grid="0" gridSize="10" guides="1" tooltips="1" connect="1" arrows="1" fold="1" page="1" pageScale="1" pageWidth="827" pageHeight="1169" background="#ffffff" math="0" shadow="0">
            <root>
                <mxCell id="0"/>
                <mxCell id="1" parent="0"/>
                <mxCell id="2" style="edgeStyle=orthogonalEdgeStyle;rounded=0;orthogonalLoop=1;jettySize=auto;html=1;exitX=0.25;exitY=1;exitDx=0;exitDy=0;entryX=0.417;entryY=-0.15;entryDx=0;entryDy=0;entryPerimeter=0;strokeColor=#000000;" parent="1" source="4" target="12" edge="1">
                    <mxGeometry relative="1" as="geometry"/>
                </mxCell>
                <mxCell id="3" style="edgeStyle=orthogonalEdgeStyle;rounded=0;orthogonalLoop=1;jettySize=auto;html=1;exitX=0.75;exitY=1;exitDx=0;exitDy=0;entryX=0.592;entryY=-0.05;entryDx=0;entryDy=0;entryPerimeter=0;strokeColor=#0066CC;" parent="1" source="4" target="14" edge="1">
                    <mxGeometry relative="1" as="geometry"/>
                </mxCell>
                <mxCell id="4" value="&lt;b&gt;&lt;font color=&quot;#000000&quot;&gt;Entity&lt;/font&gt;&lt;/b&gt;" style="rounded=0;whiteSpace=wrap;html=1;fillColor=#FFFFFF;strokeColor=#000000;strokeWidth=2;" parent="1" vertex="1">
                    <mxGeometry x="393" y="1220" width="170" height="80" as="geometry"/>
                </mxCell>
                <mxCell id="5" style="edgeStyle=orthogonalEdgeStyle;rounded=0;orthogonalLoop=1;jettySize=auto;html=1;exitX=0.25;exitY=1;exitDx=0;exitDy=0;entryX=0.081;entryY=0;entryDx=0;entryDy=0;entryPerimeter=0;strokeColor=#000000;" parent="1" source="7" target="12" edge="1">
                    <mxGeometry relative="1" as="geometry"/>
                </mxCell>
                <mxCell id="6" style="edgeStyle=orthogonalEdgeStyle;rounded=0;orthogonalLoop=1;jettySize=auto;html=1;exitX=0.75;exitY=1;exitDx=0;exitDy=0;strokeColor=#0066CC;" parent="1" source="7" edge="1">
                    <mxGeometry relative="1" as="geometry">
                        <mxPoint x="361" y="1564" as="targetPoint"/>
                    </mxGeometry>
                </mxCell>
                <mxCell id="7" value="&lt;b&gt;&lt;font color=&quot;#000000&quot;&gt;Entity&lt;/font&gt;&lt;/b&gt;" style="rounded=0;whiteSpace=wrap;html=1;fillColor=#FFFFFF;strokeColor=#000000;strokeWidth=2;" parent="1" vertex="1">
                    <mxGeometry x="233" y="1364" width="170" height="80" as="geometry"/>
                </mxCell>
                <mxCell id="8" style="edgeStyle=orthogonalEdgeStyle;rounded=0;orthogonalLoop=1;jettySize=auto;html=1;exitX=0.25;exitY=1;exitDx=0;exitDy=0;entryX=0.738;entryY=-0.1;entryDx=0;entryDy=0;entryPerimeter=0;strokeColor=#000000;" parent="1" source="10" target="12" edge="1">
                    <mxGeometry relative="1" as="geometry"/>
                </mxCell>
                <mxCell id="9" style="edgeStyle=orthogonalEdgeStyle;rounded=0;orthogonalLoop=1;jettySize=auto;html=1;exitX=0.75;exitY=1;exitDx=0;exitDy=0;entryX=0.917;entryY=-0.05;entryDx=0;entryDy=0;entryPerimeter=0;strokeColor=#0066CC;" parent="1" source="10" target="14" edge="1">
                    <mxGeometry relative="1" as="geometry"/>
                </mxCell>
                <mxCell id="10" value="&lt;b&gt;&lt;font color=&quot;#000000&quot;&gt;Entity&lt;/font&gt;&lt;/b&gt;" style="rounded=0;whiteSpace=wrap;html=1;fillColor=#FFFFFF;strokeColor=#000000;strokeWidth=2;" parent="1" vertex="1">
                    <mxGeometry x="548" y="1364" width="170" height="80" as="geometry"/>
                </mxCell>
                <mxCell id="11" style="edgeStyle=orthogonalEdgeStyle;rounded=0;orthogonalLoop=1;jettySize=auto;html=1;exitX=0;exitY=0.5;exitDx=0;exitDy=0;entryX=0;entryY=0.5;entryDx=0;entryDy=0;strokeColor=#000000;" parent="1" source="12" target="15" edge="1">
                    <mxGeometry relative="1" as="geometry"/>
                </mxCell>
                <mxCell id="12" value="&lt;font color=&quot;#000000&quot; size=&quot;1&quot;&gt;&lt;b style=&quot;font-size: 14px&quot;&gt;Property Plane&lt;/b&gt;&lt;/font&gt;" style="rounded=0;whiteSpace=wrap;html=1;strokeColor=#000000;strokeWidth=2;fillColor=#FFFFFF;dashed=1;" parent="1" vertex="1">
                    <mxGeometry x="236" y="1509" width="480" height="25" as="geometry"/>
                </mxCell>
                <mxCell id="13" style="edgeStyle=orthogonalEdgeStyle;rounded=0;orthogonalLoop=1;jettySize=auto;html=1;exitX=1;exitY=0.5;exitDx=0;exitDy=0;entryX=1;entryY=0.5;entryDx=0;entryDy=0;strokeColor=#0066CC;strokeWidth=1;" parent="1" source="14" target="16" edge="1">
                    <mxGeometry relative="1" as="geometry"/>
                </mxCell>
                <mxCell id="43" value="" style="edgeStyle=none;html=1;" edge="1" parent="1" source="14" target="12">
                    <mxGeometry relative="1" as="geometry"/>
                </mxCell>
                <mxCell id="14" value="&lt;span style=&quot;color: rgb(0 , 0 , 0)&quot;&gt;&lt;b&gt;&lt;font style=&quot;font-size: 14px&quot;&gt;Time-Series Plane&lt;/font&gt;&lt;/b&gt;&lt;/span&gt;" style="rounded=0;whiteSpace=wrap;html=1;strokeColor=#000000;strokeWidth=2;fillColor=#FFFFFF;dashed=1;" parent="1" vertex="1">
                    <mxGeometry x="236" y="1566" width="480" height="24" as="geometry"/>
                </mxCell>
                <mxCell id="18" style="edgeStyle=orthogonalEdgeStyle;rounded=0;orthogonalLoop=1;jettySize=auto;html=1;exitX=0.5;exitY=1;exitDx=0;exitDy=0;entryX=0.193;entryY=-0.033;entryDx=0;entryDy=0;entryPerimeter=0;strokeColor=#000000;" parent="1" source="15" target="17" edge="1">
                    <mxGeometry relative="1" as="geometry"/>
                </mxCell>
                <mxCell id="15" value="&lt;font color=&quot;#000000&quot;&gt;&lt;b&gt;Buffer&lt;/b&gt;&lt;/font&gt;" style="rounded=0;whiteSpace=wrap;html=1;strokeColor=#000000;strokeWidth=2;fillColor=#FFFFFF;" parent="1" vertex="1">
                    <mxGeometry x="253" y="1704" width="170" height="90" as="geometry"/>
                </mxCell>
                <mxCell id="19" style="edgeStyle=orthogonalEdgeStyle;rounded=0;orthogonalLoop=1;jettySize=auto;html=1;exitX=0.5;exitY=1;exitDx=0;exitDy=0;entryX=0.778;entryY=0;entryDx=0;entryDy=0;entryPerimeter=0;strokeColor=#000000;" parent="1" source="16" target="17" edge="1">
                    <mxGeometry relative="1" as="geometry"/>
                </mxCell>
                <mxCell id="16" value="&lt;b&gt;&lt;font color=&quot;#0066cc&quot;&gt;Batch Queue&lt;/font&gt;&lt;/b&gt;" style="rounded=0;whiteSpace=wrap;html=1;strokeColor=#000000;strokeWidth=2;fillColor=#FFFFFF;" parent="1" vertex="1">
                    <mxGeometry x="523" y="1704" width="170" height="90" as="geometry"/>
                </mxCell>
                <mxCell id="17" value="&lt;font color=&quot;#000000&quot; size=&quot;1&quot;&gt;&lt;b style=&quot;font-size: 14px&quot;&gt;Data Store&lt;/b&gt;&lt;/font&gt;" style="rounded=0;whiteSpace=wrap;html=1;fillColor=#FFFFFF;strokeColor=#000000;strokeWidth=2;" parent="1" vertex="1">
                    <mxGeometry x="250" y="1900" width="460" height="60" as="geometry"/>
                </mxCell>
                <mxCell id="22" style="edgeStyle=orthogonalEdgeStyle;rounded=0;orthogonalLoop=1;jettySize=auto;html=1;exitX=0.5;exitY=0;exitDx=0;exitDy=0;entryX=0.5;entryY=1;entryDx=0;entryDy=0;strokeColor=#000000;" parent="1" source="21" target="17" edge="1">
                    <mxGeometry relative="1" as="geometry"/>
                </mxCell>
                <mxCell id="21" value="&lt;font color=&quot;#000000&quot; size=&quot;1&quot;&gt;&lt;b style=&quot;font-size: 14px&quot;&gt;Query Module&lt;/b&gt;&lt;/font&gt;" style="rounded=0;whiteSpace=wrap;html=1;strokeColor=#000000;strokeWidth=2;fillColor=#FFFFFF;" parent="1" vertex="1">
                    <mxGeometry x="249" y="2080" width="462" height="60" as="geometry"/>
                </mxCell>
                <mxCell id="23" value="" style="shape=curlyBracket;whiteSpace=wrap;html=1;rounded=1;strokeColor=#000000;strokeWidth=2;fillColor=#FFFFFF;" parent="1" vertex="1">
                    <mxGeometry x="206" y="1930" width="30" height="190" as="geometry"/>
                </mxCell>
                <mxCell id="24" value="&lt;font color=&quot;#000000&quot; size=&quot;1&quot;&gt;&lt;b style=&quot;font-size: 14px&quot;&gt;Config Concrete Database&lt;/b&gt;&lt;/font&gt;" style="text;html=1;align=center;verticalAlign=middle;resizable=0;points=[];autosize=1;strokeColor=none;" parent="1" vertex="1">
                    <mxGeometry x="21" y="2012" width="185" height="20" as="geometry"/>
                </mxCell>
                <mxCell id="25" style="edgeStyle=orthogonalEdgeStyle;rounded=0;orthogonalLoop=1;jettySize=auto;html=1;exitX=0.25;exitY=1;exitDx=0;exitDy=0;entryX=0.417;entryY=-0.15;entryDx=0;entryDy=0;entryPerimeter=0;strokeColor=#000000;" edge="1" parent="1" source="27" target="35">
                    <mxGeometry relative="1" as="geometry"/>
                </mxCell>
                <mxCell id="26" style="edgeStyle=orthogonalEdgeStyle;rounded=0;orthogonalLoop=1;jettySize=auto;html=1;exitX=0.75;exitY=1;exitDx=0;exitDy=0;entryX=0.592;entryY=-0.05;entryDx=0;entryDy=0;entryPerimeter=0;strokeColor=#0066CC;" edge="1" parent="1" source="27" target="37">
                    <mxGeometry relative="1" as="geometry"/>
                </mxCell>
                <mxCell id="27" value="&lt;b&gt;&lt;font color=&quot;#000000&quot;&gt;Entity&lt;/font&gt;&lt;/b&gt;" style="rounded=0;whiteSpace=wrap;html=1;fillColor=#FFFFFF;strokeColor=#000000;strokeWidth=2;" vertex="1" parent="1">
                    <mxGeometry x="1240.94" y="1187" width="170" height="80" as="geometry"/>
                </mxCell>
                <mxCell id="28" style="edgeStyle=orthogonalEdgeStyle;rounded=0;orthogonalLoop=1;jettySize=auto;html=1;exitX=0.25;exitY=1;exitDx=0;exitDy=0;entryX=0.081;entryY=0;entryDx=0;entryDy=0;entryPerimeter=0;strokeColor=#000000;" edge="1" parent="1" source="30" target="35">
                    <mxGeometry relative="1" as="geometry"/>
                </mxCell>
                <mxCell id="29" style="edgeStyle=orthogonalEdgeStyle;rounded=0;orthogonalLoop=1;jettySize=auto;html=1;exitX=0.75;exitY=1;exitDx=0;exitDy=0;strokeColor=#0066CC;" edge="1" parent="1" source="30">
                    <mxGeometry relative="1" as="geometry">
                        <mxPoint x="1208.94" y="1531" as="targetPoint"/>
                    </mxGeometry>
                </mxCell>
                <mxCell id="30" value="&lt;b&gt;&lt;font color=&quot;#000000&quot;&gt;Entity&lt;/font&gt;&lt;/b&gt;" style="rounded=0;whiteSpace=wrap;html=1;fillColor=#FFFFFF;strokeColor=#000000;strokeWidth=2;" vertex="1" parent="1">
                    <mxGeometry x="1080.94" y="1331" width="170" height="80" as="geometry"/>
                </mxCell>
                <mxCell id="31" style="edgeStyle=orthogonalEdgeStyle;rounded=0;orthogonalLoop=1;jettySize=auto;html=1;exitX=0.25;exitY=1;exitDx=0;exitDy=0;entryX=0.738;entryY=-0.1;entryDx=0;entryDy=0;entryPerimeter=0;strokeColor=#000000;" edge="1" parent="1" source="33" target="35">
                    <mxGeometry relative="1" as="geometry"/>
                </mxCell>
                <mxCell id="32" style="edgeStyle=orthogonalEdgeStyle;rounded=0;orthogonalLoop=1;jettySize=auto;html=1;exitX=0.75;exitY=1;exitDx=0;exitDy=0;entryX=0.917;entryY=-0.05;entryDx=0;entryDy=0;entryPerimeter=0;strokeColor=#0066CC;" edge="1" parent="1" source="33" target="37">
                    <mxGeometry relative="1" as="geometry"/>
                </mxCell>
                <mxCell id="33" value="&lt;b&gt;&lt;font color=&quot;#000000&quot;&gt;Entity&lt;/font&gt;&lt;/b&gt;" style="rounded=0;whiteSpace=wrap;html=1;fillColor=#FFFFFF;strokeColor=#000000;strokeWidth=2;" vertex="1" parent="1">
                    <mxGeometry x="1395.94" y="1331" width="170" height="80" as="geometry"/>
                </mxCell>
                <mxCell id="34" style="edgeStyle=orthogonalEdgeStyle;rounded=0;orthogonalLoop=1;jettySize=auto;html=1;exitX=0;exitY=0.5;exitDx=0;exitDy=0;entryX=0;entryY=0.5;entryDx=0;entryDy=0;strokeColor=#000000;" edge="1" parent="1" source="35" target="39">
                    <mxGeometry relative="1" as="geometry"/>
                </mxCell>
                <mxCell id="35" value="&lt;font color=&quot;#000000&quot;&gt;&lt;b&gt;Property Plane&lt;/b&gt;&lt;/font&gt;" style="rounded=0;whiteSpace=wrap;html=1;strokeColor=#000000;strokeWidth=2;fillColor=#FFFFFF;dashed=1;" vertex="1" parent="1">
                    <mxGeometry x="1083.94" y="1481" width="480" height="20" as="geometry"/>
                </mxCell>
                <mxCell id="36" style="edgeStyle=orthogonalEdgeStyle;rounded=0;orthogonalLoop=1;jettySize=auto;html=1;exitX=1;exitY=0.5;exitDx=0;exitDy=0;entryX=1;entryY=0.5;entryDx=0;entryDy=0;strokeColor=#0066CC;strokeWidth=1;" edge="1" parent="1" source="37" target="41">
                    <mxGeometry relative="1" as="geometry"/>
                </mxCell>
                <mxCell id="37" value="&lt;span style=&quot;color: rgb(0 , 0 , 0)&quot;&gt;&lt;b&gt;Time-Series Plane&lt;/b&gt;&lt;/span&gt;" style="rounded=0;whiteSpace=wrap;html=1;strokeColor=#000000;strokeWidth=2;fillColor=#FFFFFF;dashed=1;" vertex="1" parent="1">
                    <mxGeometry x="1083.94" y="1531" width="480" height="20" as="geometry"/>
                </mxCell>
                <mxCell id="38" style="edgeStyle=orthogonalEdgeStyle;rounded=0;orthogonalLoop=1;jettySize=auto;html=1;exitX=0.5;exitY=1;exitDx=0;exitDy=0;entryX=0.193;entryY=-0.033;entryDx=0;entryDy=0;entryPerimeter=0;strokeColor=#000000;" edge="1" parent="1" source="39" target="42">
                    <mxGeometry relative="1" as="geometry"/>
                </mxCell>
                <mxCell id="39" value="&lt;font color=&quot;#000000&quot;&gt;&lt;b&gt;Buffer&lt;/b&gt;&lt;/font&gt;" style="rounded=0;whiteSpace=wrap;html=1;strokeColor=#000000;strokeWidth=2;fillColor=#FFFFFF;" vertex="1" parent="1">
                    <mxGeometry x="1100.94" y="1671" width="170" height="90" as="geometry"/>
                </mxCell>
                <mxCell id="40" style="edgeStyle=orthogonalEdgeStyle;rounded=0;orthogonalLoop=1;jettySize=auto;html=1;exitX=0.5;exitY=1;exitDx=0;exitDy=0;entryX=0.778;entryY=0;entryDx=0;entryDy=0;entryPerimeter=0;strokeColor=#000000;" edge="1" parent="1" source="41" target="42">
                    <mxGeometry relative="1" as="geometry"/>
                </mxCell>
                <mxCell id="41" value="&lt;b&gt;&lt;font color=&quot;#0066cc&quot;&gt;Batch Queue&lt;/font&gt;&lt;/b&gt;" style="rounded=0;whiteSpace=wrap;html=1;strokeColor=#000000;strokeWidth=2;fillColor=#FFFFFF;" vertex="1" parent="1">
                    <mxGeometry x="1370.94" y="1671" width="170" height="90" as="geometry"/>
                </mxCell>
                <mxCell id="42" value="&lt;font color=&quot;#000000&quot;&gt;&lt;b&gt;Data Store&lt;/b&gt;&lt;/font&gt;" style="rounded=0;whiteSpace=wrap;html=1;fillColor=#FFFFFF;strokeColor=#000000;strokeWidth=2;" vertex="1" parent="1">
                    <mxGeometry x="1097.94" y="1867" width="460" height="60" as="geometry"/>
                </mxCell>
            </root>
        </mxGraphModel>
    </diagram>
</mxfile>